<?xml version="1.0" encoding="UTF-8" standalone="no"?>
<!-- Created with Inkscape (http://www.inkscape.org/) -->

<svg
   xmlns:dc="http://purl.org/dc/elements/1.1/"
   xmlns:cc="http://creativecommons.org/ns#"
   xmlns:rdf="http://www.w3.org/1999/02/22-rdf-syntax-ns#"
   xmlns:svg="http://www.w3.org/2000/svg"
   xmlns="http://www.w3.org/2000/svg"
   xmlns:sodipodi="http://sodipodi.sourceforge.net/DTD/sodipodi-0.dtd"
   xmlns:inkscape="http://www.inkscape.org/namespaces/inkscape"
   width="225.6075"
   height="92.807999"
   id="svg2"
   version="1.1"
   inkscape:version="0.48.1 r9760"
   sodipodi:docname="tracks-queue.svg">
  <defs
     id="defs4" />
  <sodipodi:namedview
     id="base"
     pagecolor="#ffffff"
     bordercolor="#666666"
     borderopacity="1.0"
     inkscape:pageopacity="0.0"
     inkscape:pageshadow="2"
     inkscape:zoom="0.35"
     inkscape:cx="285.9385"
     inkscape:cy="-300.51761"
     inkscape:document-units="px"
     inkscape:current-layer="layer1"
     showgrid="false"
     inkscape:window-width="857"
     inkscape:window-height="601"
     inkscape:window-x="126"
     inkscape:window-y="249"
     inkscape:window-maximized="0"
     fit-margin-top="0"
     fit-margin-left="0"
     fit-margin-right="0"
     fit-margin-bottom="0" />
  <metadata
     id="metadata7">
    <rdf:RDF>
      <cc:Work
         rdf:about="">
        <dc:format>image/svg+xml</dc:format>
        <dc:type
           rdf:resource="http://purl.org/dc/dcmitype/StillImage" />
        <dc:title />
      </cc:Work>
    </rdf:RDF>
  </metadata>
  <g
     inkscape:label="Layer 1"
     inkscape:groupmode="layer"
     id="layer1"
     transform="translate(-89.0615,-139.03657)">
    <g
       style="font-size:72px;font-style:normal;font-variant:normal;font-weight:normal;font-stretch:normal;line-height:125%;letter-spacing:0px;word-spacing:0px;fill:#000000;fill-opacity:1;stroke:none;font-family:Wet Dream;-inkscape-font-specification:Wet Dream"
       id="flowRoot2985">
      <path
         d="m 99.7175,188.06857 c -0.384008,-0.048 -0.768008,-0.288 -1.152,-0.72 -0.336007,-0.432 -0.648006,-0.912 -0.936,-1.44 -0.288006,-0.528 -0.528006,-1.008 -0.72,-1.44 -0.192005,-0.43199 -0.360005,-0.64799 -0.504,-0.648 l -0.216,0.072 c -1.248004,1.44 -2.208003,2.472 -2.88,3.096 -0.624001,0.576 -1.080001,0.936 -1.368,1.08 -0.288,0.144 -0.48,0.168 -0.576,0.072 -0.144,-0.096 -0.336,-0.072 -0.576,0.072 -0.815999,-0.24 -1.199998,-0.696 -1.152,-1.368 0.048,-0.72 0.384001,-1.56 1.008,-2.52 0.576,-1.00799 1.319999,-2.06399 2.232,-3.168 0.911998,-1.15199 1.823997,-2.27999 2.736,-3.384 0.959995,-1.10399 1.823994,-2.13599 2.592,-3.096 0.767992,-0.95998 1.271992,-1.72798 1.512,-2.304 0.239991,-0.62398 0.119992,-1.00798 -0.36,-1.152 -0.480007,-0.19198 -1.464006,-0.048 -2.952,0.432 -0.480004,0.096 -1.080004,0.21602 -1.8,0.36 -0.720002,0.096 -1.440002,0.21602 -2.16,0.36 -0.72,0.14402 -1.368,0.24002 -1.944,0.288 -0.575998,0.048 -0.959998,0.024 -1.152,-0.072 -0.191998,-0.096 -0.119998,-0.28798 0.216,-0.576 0.288002,-0.28798 0.960001,-0.71998 2.016,-1.296 0.144,-0.048 0.383999,-0.11998 0.72,-0.216 0.383999,-0.14398 0.647998,-0.21598 0.792,-0.216 1.343997,-0.23998 2.663996,-0.47998 3.96,-0.72 1.295993,-0.28798 2.567992,-0.59998 3.816,-0.936 0.33599,-0.19198 0.55199,-0.52798 0.648,-1.008 0.096,-0.096 0.23999,-0.38398 0.432,-0.864 0.19199,-0.47998 0.28799,-0.79198 0.288,-0.936 0.67199,-1.29597 1.27199,-2.56797 1.8,-3.816 0.52799,-1.24797 1.12799,-2.49597 1.8,-3.744 0.19199,-0.28797 0.35999,-0.59997 0.504,-0.936 0.19198,-0.38397 0.47998,-0.57597 0.864,-0.576 0.23998,3e-5 0.50398,3e-5 0.792,0 0.28798,3e-5 0.43198,0.12003 0.432,0.36 0.33598,1.39203 0.38398,2.66403 0.144,3.816 -0.24002,1.10403 -0.55202,2.08803 -0.936,2.952 -0.33602,0.86403 -0.67202,1.58402 -1.008,2.16 -0.33601,0.57602 -0.43201,1.00802 -0.288,1.296 0.95998,-0.096 1.94398,-0.26398 2.952,-0.504 1.00798,-0.28798 1.99198,-0.62398 2.952,-1.008 0.096,2e-5 0.26398,-0.024 0.504,-0.072 0.23998,-0.096 0.47998,-0.16798 0.72,-0.216 0.28798,-0.096 0.55198,-0.19198 0.792,-0.288 0.23998,-0.096 0.38398,-0.14398 0.432,-0.144 0.048,2e-5 0.26398,-0.048 0.648,-0.144 0.38398,-0.096 0.81598,-0.19197 1.296,-0.288 0.47997,-0.14397 0.91197,-0.26397 1.296,-0.36 0.38397,-0.096 0.59997,-0.14397 0.648,-0.144 0.048,-0.096 0.50397,-0.26397 1.368,-0.504 0.91197,-0.23997 1.84797,-0.47997 2.808,-0.72 0.95997,-0.23997 1.75197,-0.40797 2.376,-0.504 0.67197,-0.096 0.79197,-0.048 0.36,0.144 -0.048,3e-5 -0.43203,0.12003 -1.152,0.36 -0.72003,0.19203 -1.63203,0.48003 -2.736,0.864 -1.10403,0.33603 -2.30403,0.69603 -3.6,1.08 -1.24803,0.38402 -2.42402,0.76802 -3.528,1.152 -1.05602,0.33602 -1.96802,0.62402 -2.736,0.864 -0.72002,0.19202 -1.10402,0.28802 -1.152,0.288 -0.096,2e-5 -0.28802,0.048 -0.576,0.144 -0.24002,0.048 -0.52802,0.14402 -0.864,0.288 -0.33602,0.096 -0.64802,0.19202 -0.936,0.288 -0.28802,0.096 -0.48002,0.14402 -0.576,0.144 -0.57602,0.14402 -1.15202,0.52802 -1.728,1.152 -0.57601,0.57602 -1.12801,1.27202 -1.656,2.088 -0.52801,0.81602 -1.03201,1.68002 -1.512,2.592 -0.48001,0.91202 -0.88801,1.75201 -1.224,2.52 -0.28801,0.72001 -0.52801,1.29601 -0.72,1.728 -0.14401,0.43201 -0.19201,0.60001 -0.144,0.504 -0.19201,0.57601 -0.38401,1.08001 -0.576,1.512 -0.144008,0.43201 -0.288008,0.88801 -0.432,1.368 -0.09601,0.43201 -0.192008,0.91201 -0.288,1.44 -0.04801,0.48001 -0.04801,1.05601 0,1.728 -8e-6,0.624 0.167992,1.032 0.504,1.224 0.38399,0.192 0.79199,0.312 1.224,0.36 0.52799,0.048 1.10399,-0.024 1.728,-0.216 0.19199,0 0.45599,-0.072 0.792,-0.216 0.38399,-0.144 0.74399,-0.336 1.08,-0.576 0.38399,-0.24 0.79199,-0.52799 1.224,-0.864 1.10398,-0.86399 1.82398,-1.31999 2.16,-1.368 0.33598,-0.048 0.38398,0.14401 0.144,0.576 -0.19202,0.43201 -0.62402,1.00801 -1.296,1.728 -0.67201,0.672 -1.41601,1.296 -2.232,1.872 -0.81601,0.528 -1.68001,0.936 -2.592,1.224 -0.91201,0.24 -1.70401,0.12 -2.376,-0.36"
         style=""
         id="path2987" />
      <path
         d="m 114.11638,186.26857 c -0.28801,-0.624 -0.26401,-1.296 0.072,-2.016 0.048,-0.048 0.144,-0.21599 0.28801,-0.504 0.19199,-0.33599 0.38399,-0.64799 0.57599,-0.936 0.192,-0.33599 0.36,-0.64799 0.50401,-0.936 0.19199,-0.28799 0.31199,-0.45599 0.36,-0.504 0.14399,-0.33599 0.19199,-0.59999 0.14399,-0.792 -0.096,-0.14399 -0.312,-0.28799 -0.648,-0.432 -0.288,-0.14399 -0.552,-0.21599 -0.792,-0.216 -0.72,1e-5 -1.464,0.24001 -2.232,0.72 -0.768,0.43201 -1.56,0.91201 -2.37599,1.44 -0.76801,0.52801 -1.51201,1.03201 -2.232,1.512 -0.67201,0.43201 -1.296,0.64801 -1.872,0.648 -1.008,-0.096 -1.512,-0.28799 -1.512,-0.576 -0.048,-0.33599 0.168,-0.69599 0.648,-1.08 0.48,-0.38399 1.128,-0.81599 1.944,-1.296 0.86399,-0.47999 1.65599,-0.95999 2.37599,-1.44 0.72,-0.47999 1.296,-0.93599 1.72801,-1.368 0.47999,-0.47999 0.57599,-0.91199 0.288,-1.296 -1e-5,-0.048 -0.048,-0.14399 -0.14401,-0.288 -0.048,-0.19199 -0.12,-0.38399 -0.21599,-0.576 -0.096,-0.19199 -0.19201,-0.35999 -0.288,-0.504 -0.096,-0.19199 -0.14401,-0.31199 -0.144,-0.36 -0.096,-0.19199 -0.16801,-0.50399 -0.216,-0.936 -0.048,-0.47998 -0.048,-0.93598 0,-1.368 0.048,-0.47998 0.16799,-0.88798 0.36,-1.224 0.23999,-0.33598 0.59999,-0.50398 1.08,-0.504 1.10399,2e-5 1.84799,0.26402 2.232,0.792 0.38399,0.52802 0.71999,1.05602 1.00799,1.584 0,0.048 0.048,0.16802 0.14401,0.36 0.14399,0.19202 0.28799,0.43202 0.432,0.72 0.14399,0.24001 0.26399,0.48001 0.36,0.72 0.14399,0.19201 0.21599,0.31201 0.216,0.36 0.14399,0.24001 0.45598,0.45601 0.936,0.648 0.47998,0.19201 0.93598,0.28801 1.368,0.288 0.52798,1e-5 1.05598,-0.048 1.584,-0.144 0.52798,-0.14399 1.07998,-0.21599 1.65599,-0.216 0.33599,10e-6 0.76799,0.096 1.29601,0.288 0.52798,0.14401 0.81598,0.33601 0.864,0.576 -2e-5,0.096 -0.048,0.24001 -0.144,0.432 -0.048,0.19201 -0.096,0.33601 -0.14401,0.432 -0.096,0.096 -0.26401,0.26401 -0.50399,0.504 -0.24002,0.19201 -0.50402,0.43201 -0.792,0.72 -0.28802,0.28801 -0.57602,0.55201 -0.864,0.792 -0.24002,0.24001 -0.38402,0.38401 -0.43201,0.432 -0.28801,0.28801 -0.64801,0.67201 -1.07999,1.152 -0.38402,0.43201 -0.76802,0.91201 -1.15201,1.44 -0.33601,0.48001 -0.60001,0.96001 -0.792,1.44 -0.19201,0.48 -0.21601,0.936 -0.072,1.368 0.096,0.24 0.31198,0.48 0.648,0.72 0.38398,0.24 0.76798,0.36 1.152,0.36 0.38398,0 0.83998,-0.048 1.368,-0.144 0.57598,-0.096 1.05598,-0.192 1.43999,-0.288 0.19199,-0.048 0.52799,-0.216 1.008,-0.504 0.52799,-0.336 1.07999,-0.696 1.65601,-1.08 0.57598,-0.38399 1.12798,-0.71999 1.656,-1.008 0.52797,-0.33599 0.93597,-0.55199 1.22399,-0.648 0.43198,-0.14399 0.83998,-0.21599 1.224,-0.216 0.38398,10e-6 0.67198,0.072 0.864,0.216 0.23998,0.14401 0.33598,0.36001 0.288,0.648 -0.048,0.28801 -0.31202,0.64801 -0.792,1.08 -0.096,0.048 -0.36002,0.192 -0.792,0.432 -0.38402,0.24 -0.84002,0.528 -1.36799,0.864 -0.52803,0.288 -1.05602,0.6 -1.58401,0.936 -0.52801,0.288 -0.96001,0.504 -1.29599,0.648 -0.67202,0.24 -1.39202,0.48 -2.16001,0.72 -0.72001,0.24 -1.48801,0.36 -2.30399,0.36 -1.39202,0 -2.66402,-0.264 -3.816,-0.792 -1.15201,-0.528 -1.89601,-1.248 -2.232,-2.16"
         style=""
         id="path2989" />
      <path
         d="m 138.80337,187.92457 c -0.048,0.048 -0.14401,0.072 -0.288,0.072 -0.768,0.528 -1.536,1.032 -2.304,1.512 -0.72,0.528 -1.536,0.864 -2.448,1.008 -0.672,0 -1.368,-0.144 -2.088,-0.432 -0.672,-0.288 -1.296,-0.696 -1.872,-1.224 -0.528,-0.528 -0.984,-1.128 -1.368,-1.8 -0.336,-0.672 -0.504,-1.392 -0.50399,-2.16 -1e-5,-0.52799 0.024,-1.03199 0.072,-1.512 0.048,-0.47999 0.24,-0.98399 0.576,-1.512 0.096,-0.096 0.288,-0.33599 0.576,-0.72 0.288,-0.38399 0.48,-0.62399 0.57601,-0.72 1.34399,-1.43999 2.71199,-2.85599 4.10399,-4.248 1.44,-1.43998 3,-2.71198 4.68,-3.816 0.86399,-0.52798 1.67999,-1.00798 2.448,-1.44 0.76799,-0.43198 1.65599,-0.64798 2.664,-0.648 0.14399,2e-5 0.26399,2e-5 0.36,0 0.14399,-0.048 0.26399,0.024 0.36,0.216 0.048,0.096 0.11999,0.31202 0.216,0.648 0.14399,0.28802 0.21599,0.48002 0.21601,0.576 l 0,2.592 0,2.52 c -2e-5,1.00801 -0.048,2.20801 -0.14401,3.6 -0.048,1.34401 -0.12001,2.49601 -0.216,3.456 -0.096,0.52801 -0.26401,0.84001 -0.504,0.936 -0.19201,0.096 -0.28801,0.408 -0.288,0.936 1.72799,-1.10399 3.07199,-1.72799 4.032,-1.872 1.00798,-0.19199 1.58398,-0.048 1.728,0.432 0.14398,0.43201 -0.16802,1.128 -0.93599,2.088 -0.76802,0.912 -2.06402,1.944 -3.88801,3.096 0.19199,-0.144 0.16799,-0.144 -0.072,0 -0.19201,0.192 -0.48001,0.408 -0.864,0.648 -0.33601,0.288 -0.69601,0.552 -1.08,0.792 -0.38401,0.288 -0.62401,0.432 -0.72,0.432 -0.43201,0 -0.76801,-0.192 -1.008,-0.576 -0.24001,-0.384 -0.45601,-0.792 -0.648,-1.224 -0.14401,-0.432 -0.31201,-0.84 -0.504,-1.224 -0.14401,-0.384 -0.38401,-0.576 -0.72,-0.576 l -0.144,0.144 m -7.056,-3.384 c 0,0.72 0.312,1.176 0.936,1.368 0.096,0 0.312,0.024 0.648,0.072 0.384,0.048 0.624,0.072 0.72,0.072 1.008,0 1.872,-0.168 2.592,-0.504 0.768,-0.336 1.60799,-0.76799 2.52,-1.296 0.23999,-0.096 0.50399,-0.26399 0.792,-0.504 0.28799,-0.23999 0.47999,-0.52799 0.576,-0.864 0.14399,-0.52799 0.19199,-0.98399 0.144,-1.368 -10e-6,-0.43199 0.096,-0.86399 0.288,-1.296 0.048,-0.096 0.096,-0.21599 0.144,-0.36 0.048,-0.14399 0.072,-0.23999 0.072,-0.288 0.23999,-1.19999 0.47999,-2.42399 0.72,-3.672 0.28799,-1.24798 0.43199,-2.49598 0.432,-3.744 -0.52801,2e-5 -1.00801,0.16802 -1.44,0.504 -0.43201,0.28802 -0.86401,0.62402 -1.296,1.008 -0.096,0.096 -0.26401,0.26402 -0.504,0.504 -0.24001,0.24002 -0.50401,0.50402 -0.792,0.792 -0.28801,0.24001 -0.576,0.50401 -0.864,0.792 -0.24,0.24001 -0.408,0.38401 -0.504,0.432 -0.672,0.72001 -1.368,1.46401 -2.088,2.232 -0.72,0.76801 -1.368,1.51201 -1.944,2.232 -0.048,0.096 -0.144,0.24001 -0.288,0.432 -0.096,0.14401 -0.168,0.26401 -0.216,0.36 -0.192,0.43201 -0.36,0.93601 -0.504,1.512 -0.096,0.52801 -0.144,1.05601 -0.144,1.584 m 5.76,-3.816 c 0.096,1e-5 0.072,-0.096 -0.072,-0.288 -0.096,-0.14399 -0.12,-0.21599 -0.072,-0.216 0.048,1e-5 0.072,-0.024 0.072,-0.072 0,-0.048 0.072,-0.048 0.216,0 0.192,1e-5 0.28799,-0.048 0.288,-0.144 -1e-5,-0.096 0.024,-0.16799 0.072,-0.216 0.048,-0.096 0.096,-0.21599 0.144,-0.36 -1e-5,-0.096 0.048,-0.14399 0.144,-0.144 0.048,1e-5 0.096,0.024 0.144,0.072 0.14399,0.096 0.26399,0.16801 0.36,0.216 0.19199,0.096 0.31199,0.14401 0.36,0.144 0.048,1e-5 0.072,0.12001 0.072,0.36 -1e-5,0.24001 -0.024,0.43201 -0.072,0.576 -0.096,0.38401 -0.14401,0.62401 -0.144,0.72 -1e-5,0.096 -0.096,0.16801 -0.28799,0.216 -0.14402,0.048 -0.26402,0.072 -0.36001,0.072 -0.096,1e-5 -0.21601,1e-5 -0.36,0 -0.096,-0.048 -0.192,-0.072 -0.288,-0.072 -0.096,1e-5 -0.168,-0.048 -0.216,-0.144 -0.048,-0.14399 -0.12,-0.23999 -0.216,-0.288 -0.096,-0.048 -0.12,-0.11999 -0.072,-0.216 0.096,-0.14399 0.19199,-0.21599 0.28799,-0.216 m -5.904,-12.888 c 0,2e-5 0.096,-0.096 0.288,-0.288 l 0.144,-0.144 c 0.048,-0.048 0.12,-0.072 0.216,-0.072 0.192,0.048 0.36,0.096 0.50401,0.144 0.096,0.048 0.19199,0.096 0.28799,0.144 0.096,0.048 0.168,0.072 0.216,0.072 0.048,0.048 0.072,0.14402 0.072,0.288 0,0.14402 -0.024,0.24002 -0.072,0.288 -0.048,0.048 -0.072,0.14402 -0.072,0.288 0.048,0.14402 0.048,0.26402 0,0.36 -0.048,0.096 -0.144,0.16802 -0.288,0.216 -0.096,0.048 -0.168,0.072 -0.216,0.072 -0.048,2e-5 -0.144,2e-5 -0.288,0 -0.144,-0.048 -0.24,-0.072 -0.288,-0.072 -0.048,2e-5 -0.144,-0.048 -0.288,-0.144 -0.144,-0.14398 -0.24,-0.26398 -0.288,-0.36 -0.048,-0.096 -0.048,-0.23998 0,-0.432 0.096,-0.19198 0.12,-0.31198 0.072,-0.36"
         style=""
         id="path2991" />
      <path
         d="m 148.47275,185.11657 c -0.528,-0.91199 -0.696,-1.87199 -0.504,-2.88 0.144,-1.00799 0.552,-1.89599 1.224,-2.664 0.72,-0.81599 1.632,-1.48799 2.736,-2.016 1.10399,-0.52799 2.37599,-0.79199 3.816,-0.792 0.52799,1e-5 1.12799,0.072 1.8,0.216 0.71999,0.096 1.19999,0.33601 1.44,0.72 0.38399,0.67201 0.38399,1.24801 0,1.728 -0.38401,0.43201 -1.05601,0.64801 -2.016,0.648 -0.52801,1e-5 -1.10401,0.12001 -1.728,0.36 -0.57601,0.19201 -1.12801,0.40801 -1.656,0.648 -0.672,0.52801 -1.152,1.12801 -1.44,1.8 -0.288,0.67201 -0.216,1.41601 0.216,2.232 0.24,0.432 0.384,0.792 0.432,1.08 0.096,0.288 0.50399,0.552 1.224,0.792 0.91199,0.192 1.94399,0.048 3.096,-0.432 1.19999,-0.528 2.35199,-1.128 3.456,-1.8 1.15199,-0.71999 2.18399,-1.39199 3.096,-2.016 0.95998,-0.62399 1.63198,-0.95999 2.016,-1.008 0.38398,-0.048 0.40798,0.33601 0.072,1.152 -0.28802,0.76801 -1.10402,2.208 -2.448,4.32 0.14398,0 0.024,0.12 -0.36,0.36 -0.38401,0.24 -0.88801,0.504 -1.512,0.792 -0.62401,0.288 -1.34401,0.528 -2.16,0.72 -0.81601,0.192 -1.58401,0.24 -2.304,0.144 -1.77601,0 -3.45601,-0.36 -5.04,-1.08 -1.584,-0.768 -2.736,-1.776 -3.456,-3.024 m 9.072,7.272 c 0.14399,0 0.28799,-0.048 0.432,-0.144 0.14399,-0.048 0.26399,-0.096 0.36,-0.144 0.096,0 0.16799,0.024 0.216,0.072 0.096,0.096 0.14399,0.312 0.144,0.648 -1e-5,0.048 -0.024,0.168 -0.072,0.36 -1e-5,0.24 -0.024,0.384 -0.072,0.432 -1e-5,0 -0.12001,0 -0.36,0 l -0.36,0 -0.216,-0.216 c -0.14401,-0.048 -0.21601,-0.12 -0.216,-0.216 l 0,-0.144 c -10e-6,-0.096 0.024,-0.192 0.072,-0.288 -1e-5,-0.144 0.024,-0.264 0.072,-0.36 m 2.736,2.016 c -1e-5,-0.288 0.072,-0.432 0.216,-0.432 0.19199,0 0.28799,0.144 0.288,0.432 -1e-5,0.288 -0.096,0.432 -0.288,0.432 -0.14401,0 -0.21601,-0.144 -0.216,-0.432 m 1.584,-3.528 c 0.048,0.192 0.072,0.36 0.072,0.504 0.048,0.144 0.096,0.312 0.144,0.504 0.048,0.192 0.26399,0.144 0.648,-0.144 0.14399,-0.096 0.11999,-0.24 -0.072,-0.432 -0.096,-0.096 -0.16801,-0.144 -0.216,-0.144 -0.048,0 -0.12001,-0.024 -0.216,-0.072 l -0.36,-0.216"
         style=""
         id="path2993" />
      <path
         d="m 170.90187,186.91657 c -0.048,-0.192 -0.144,-0.432 -0.288,-0.72 -0.144,-0.288 -0.312,-0.576 -0.504,-0.864 -0.192,-0.288 -0.408,-0.52799 -0.648,-0.72 -0.24,-0.23999 -0.504,-0.35999 -0.792,-0.36 l -0.072,0 c -1.104,1.44 -2.016,2.52 -2.736,3.24 -0.72,0.672 -1.296,1.08 -1.728,1.224 -0.47999,0.192 -0.83999,0.192 -1.08,0 -0.23999,-0.192 -0.40799,-0.432 -0.504,-0.72 -0.14399,-0.336 -0.21599,-0.648 -0.216,-0.936 -0.048,-0.336 -0.096,-0.528 -0.144,-0.576 0.81601,-1.392 1.51201,-2.44799 2.088,-3.168 0.576,-0.71999 1.056,-1.27199 1.44,-1.656 0.384,-0.43199 0.696,-0.74399 0.936,-0.936 0.288,-0.19199 0.528,-0.45599 0.72,-0.792 0.192,-0.33599 0.384,-0.79199 0.576,-1.368 0.192,-0.62399 0.408,-1.51199 0.648,-2.664 0.288,-1.19998 0.624,-2.75998 1.008,-4.68 0.384,-1.91998 0.888,-4.36798 1.512,-7.344 1.2,-2.44797 1.968,-4.75197 2.304,-6.912 0.336,-2.20796 0.624,-4.31996 0.864,-6.336 0.28799,-2.01596 0.71999,-3.95996 1.296,-5.832 0.57599,-1.91995 1.72799,-3.81595 3.45601,-5.688 0.23998,5e-5 0.55198,5e-5 0.93599,0 0.43199,-0.0479 0.83999,-0.0719 1.224,-0.072 0.43199,5e-5 0.81599,0.048 1.152,0.144 0.38399,0.0481 0.64799,0.16805 0.792,0.36 0.096,0.048 0.14399,0.19205 0.144,0.432 0.048,0.24005 0.096,0.40805 0.144,0.504 -1e-5,0.14405 0.024,0.33605 0.072,0.576 0.048,0.24005 0.024,0.40805 -0.072,0.504 -1e-5,0.0961 -0.096,0.40805 -0.288,0.936 -0.14401,0.48005 -0.24001,0.76805 -0.28799,0.864 -0.048,0.048 -0.12002,0.24005 -0.21601,0.576 -0.048,0.28805 -0.072,0.48005 -0.072,0.576 -0.52801,2.01604 -1.24801,4.00804 -2.16,5.976 -0.91201,1.96804 -1.80001,3.86404 -2.664,5.688 -0.52801,1.10403 -1.08001,2.16003 -1.656,3.168 -0.52801,1.00803 -1.03201,2.08803 -1.512,3.24 -0.096,0.14403 -0.24,0.48003 -0.432,1.008 -0.144,0.52803 -0.336,1.12803 -0.576,1.8 -0.192,0.62402 -0.408,1.24802 -0.648,1.872 -0.192,0.62402 -0.336,1.08002 -0.432,1.368 0,0.14402 -0.072,0.50402 -0.21599,1.08 -0.14401,0.57602 -0.31201,1.20002 -0.50401,1.872 -0.192,0.62402 -0.36,1.22402 -0.504,1.8 -0.144,0.57602 -0.216,0.93602 -0.216,1.08 -0.144,0.67201 -0.336,1.29601 -0.576,1.872 -0.192,0.57601 -0.24,1.22401 -0.144,1.944 l 0.648,0 c 0.336,-0.23999 0.648,-0.47999 0.936,-0.72 0.24,-0.23999 0.48,-0.45599 0.72,-0.648 0.24,-0.19199 0.456,-0.35999 0.648,-0.504 0.384,-0.23999 0.816,-0.57599 1.296,-1.008 0.52799,-0.47999 1.12799,-0.71998 1.8,-0.72 0.95999,2e-5 1.51199,0.55201 1.656,1.656 0.048,0.72001 -0.19201,1.27201 -0.72,1.656 l -1.944,0 c -0.096,1e-5 -0.36001,0.14401 -0.792,0.432 -0.384,0.28801 -0.792,0.60001 -1.224,0.936 -0.432,0.33601 -0.84,0.67201 -1.224,1.008 -0.336,0.33601 -0.504,0.52801 -0.504,0.576 l 0,0.216 c 0,0.14401 0.024,0.24001 0.072,0.288 0.096,0.67201 0.384,1.41601 0.864,2.232 0.528,0.76801 0.96,1.464 1.296,2.088 0.57599,1.152 1.00799,2.28 1.296,3.384 0.33599,1.152 0.69599,2.352 1.08,3.6 0.38399,1.248 0.76799,2.59199 1.152,4.032 0.38399,1.43999 1.00799,2.71199 1.872,3.816 0.62399,0.71999 1.31999,1.29599 2.08801,1.728 0.81598,0.47999 1.65598,0.83999 2.51999,1.08 0.86398,0.28799 1.72798,0.47999 2.592,0.576 0.86398,0.096 1.67998,0.14399 2.448,0.144 1.34398,-1e-5 2.54398,-0.14401 3.6,-0.432 1.10398,-0.28801 2.11197,-0.69601 3.024,-1.224 0.95997,-0.48001 1.87197,-1.08001 2.736,-1.8 0.86397,-0.72001 1.75197,-1.51201 2.664,-2.376 0.096,-0.096 0.28797,-0.31201 0.576,-0.648 0.28797,-0.28801 0.52797,-0.48001 0.72,-0.576 0.096,-0.24001 0.16797,-0.40801 0.21601,-0.504 0.096,-0.096 0.26396,-0.16801 0.50399,-0.216 l 0.072,0.072 0,0.144 c -0.096,0.52799 -0.40803,1.12799 -0.936,1.8 -0.52803,0.71999 -0.98403,1.29599 -1.368,1.728 -1.68003,1.91999 -3.55203,3.55199 -5.616,4.896 -2.06402,1.39198 -4.48802,2.08798 -7.272,2.088 -2.01602,-2e-5 -4.05601,-0.36002 -6.12,-1.08 -2.06401,-0.72002 -3.79201,-2.11201 -5.184,-4.176 -0.14401,-0.24001 -0.38401,-0.62401 -0.72,-1.152 -0.33601,-0.52801 -0.55201,-0.84001 -0.648,-0.936 -0.048,-0.048 -0.14401,-0.24001 -0.288,-0.576 -0.096,-0.28801 -0.14401,-0.48001 -0.144,-0.576 -1e-5,-0.096 -0.048,-0.24001 -0.144,-0.432 -0.096,-0.19201 -0.168,-0.31201 -0.216,-0.36 l -3.456,-10.872 m -1.152,-29.376 c -0.096,0.14403 -0.144,0.36003 -0.144,0.648 0.048,0.28803 -0.048,0.38403 -0.28799,0.288 -0.096,-0.048 -0.14401,-0.096 -0.14401,-0.144 0,-0.048 -0.048,-0.096 -0.144,-0.144 -0.24,-0.14397 -0.312,-0.26397 -0.216,-0.36 0.096,-0.096 0.168,-0.16797 0.216,-0.216 0.048,-0.096 0.12,-0.16797 0.216,-0.216 l 0.504,0.144 m -1.944,-8.352 c -0.048,-0.048 -0.048,-0.072 0,-0.072 0.048,-0.048 0.072,-0.16796 0.072,-0.36 0,-0.19196 -0.048,-0.26396 -0.144,-0.216 -0.048,0.048 -0.144,0.048 -0.288,0 -0.144,-0.048 -0.216,-0.072 -0.216,-0.072 0,-0.048 -0.024,-0.11996 -0.072,-0.216 -0.048,-0.048 -0.072,-0.11996 -0.072,-0.216 l 0,-0.072 c 0.096,-0.048 0.216,-0.072 0.36,-0.072 l 0.432,0 c 0,4e-5 0.048,0.14404 0.144,0.432 0.048,0.14404 0.12,0.28804 0.216,0.432 l 0.576,0.144 0,0.36 0,0.432 c -0.048,0.096 -0.12,0.21604 -0.216,0.36 -0.096,0.096 -0.192,0.14404 -0.288,0.144 -0.096,4e-5 -0.216,0.024 -0.36,0.072 -0.096,0.048 -0.216,0.072 -0.36,0.072 -0.192,4e-5 -0.384,-0.072 -0.57599,-0.216 -0.048,4e-5 -0.072,-0.096 -0.072,-0.288 0,-0.048 0.024,-0.11996 0.072,-0.216 0.14399,-0.096 0.28799,-0.16796 0.43199,-0.216 0.24,-0.096 0.36,-0.16796 0.36,-0.216 m 4.104,1.656 c -0.096,-0.048 -0.072,-0.048 0.072,0 0.144,0.048 0.24,0.072 0.28801,0.072 0.048,4e-5 0.048,0.048 0,0.144 -1e-5,0.096 -1e-5,0.16804 0,0.216 -1e-5,0.048 -0.024,0.12004 -0.072,0.216 -0.048,0.096 -0.096,0.14404 -0.144,0.144 l -0.288,0 c -0.096,4e-5 -0.192,-0.024 -0.288,-0.072 l -0.216,-0.432 c 0.096,-0.048 0.216,-0.096 0.36,-0.144 0.192,-0.096 0.288,-0.14396 0.288,-0.144"
         style=""
         id="path2995" />
      <path
         d="m 180.1325,191.95657 c 0,-0.144 0.048,-0.288 0.144,-0.432 0.144,-0.144 0.336,-0.216 0.576,-0.216 0.28799,0 0.50399,0 0.648,0 0.19199,0.048 0.38399,0.096 0.576,0.144 0.23999,0.048 0.50399,0.072 0.792,0.072 0.33599,0.048 0.76799,0.072 1.296,0.072 0.95999,0 1.70399,-0.192 2.232,-0.576 0.52799,-0.336 0.79199,-0.816 0.792,-1.44 -1e-5,-0.384 -0.096,-0.744 -0.288,-1.08 -0.19201,-0.288 -0.40801,-0.552 -0.648,-0.792 -0.19201,-0.192 -0.48001,-0.48 -0.864,-0.864 -0.38401,-0.432 -0.60001,-0.672 -0.648,-0.72 -0.096,-0.048 -0.26401,-0.192 -0.504,-0.432 -0.096,-0.096 -0.19201,-0.168 -0.288,-0.216 l -0.288,0.144 c -0.096,0.048 -0.19201,0.096 -0.288,0.144 -0.048,0.048 -0.12001,0.072 -0.216,0.072 -2.01601,1.68 -3.696,2.88 -5.04,3.6 -1.296,0.768 -2.256,1.176 -2.88,1.224 -0.672,0.096 -1.032,-0.096 -1.08,-0.576 -0.096,-0.432 0.096,-0.984 0.576,-1.656 0.432,-0.72 1.128,-1.488 2.088,-2.304 1.008,-0.864 2.208,-1.63199 3.6,-2.304 0.76799,-0.57599 1.48799,-0.95999 2.16,-1.152 0.71999,-0.23999 1.39199,-0.45599 2.016,-0.648 0.67199,-0.19199 1.29599,-0.43199 1.872,-0.72 0.57599,-0.28799 1.15199,-0.79199 1.728,-1.512 0.048,-0.096 0.21599,-0.40799 0.504,-0.936 0.28799,-0.57599 0.59999,-1.17599 0.936,-1.8 0.38399,-0.62399 0.71999,-1.19999 1.008,-1.728 0.28798,-0.57598 0.47998,-0.91198 0.576,-1.008 0.62398,-1.24798 1.12798,-2.06398 1.512,-2.448 0.38398,-0.43198 0.67198,-0.57598 0.864,-0.432 0.19198,0.096 0.31198,0.38402 0.36,0.864 0.096,0.43202 0.11998,0.91202 0.072,1.44 -2e-5,0.48002 -0.024,0.88802 -0.072,1.224 -0.048,0.33601 -0.096,0.43201 -0.144,0.288 -2e-5,0.048 -0.096,0.28801 -0.288,0.72 -0.19202,0.38401 -0.43202,0.84001 -0.72,1.368 -0.24002,0.52801 -0.52802,1.08001 -0.864,1.656 -0.28802,0.57601 -0.52802,1.03201 -0.72,1.368 -0.52801,0.81601 -1.00801,1.48801 -1.44,2.016 -0.38401,0.52801 -0.57601,1.29601 -0.576,2.304 l 0,1.512 c 0.19199,0.48 0.33599,0.864 0.432,1.152 0.096,0.24 0.14399,0.48 0.144,0.72 0.048,0.192 0.048,0.432 0,0.72 -1e-5,0.288 -1e-5,0.72 0,1.296 -1e-5,0.576 -0.14401,1.128 -0.432,1.656 -0.24001,0.576 -0.60001,1.08 -1.08,1.512 -0.48001,0.48 -1.03201,0.864 -1.656,1.152 -0.62401,0.288 -1.32001,0.432 -2.088,0.432 -1.05601,0 -2.06401,-0.264 -3.024,-0.792 -0.912,-0.48 -1.368,-1.176 -1.368,-2.088"
         style=""
         id="path2997" />
      <path
         d="m 208.98087,229.75657 c -0.048,-0.52804 -0.048,-1.15204 0,-1.872 0.048,-0.67204 0.19201,-1.29604 0.43201,-1.872 0.24,-0.76804 0.552,-1.48803 0.93599,-2.16 0.38401,-0.67203 0.64801,-1.36803 0.792,-2.088 0.43201,-1.58403 0.76801,-3.19203 1.008,-4.824 0.19201,-1.63203 0.45601,-3.28802 0.792,-4.968 0.144,-0.67202 0.336,-1.36802 0.576,-2.088 0.24,-0.72002 0.504,-1.46402 0.792,-2.232 0.384,-1.10402 0.696,-2.25602 0.936,-3.456 0.288,-1.15201 0.576,-2.28001 0.864,-3.384 0.528,-1.44001 1.032,-2.90401 1.512,-4.392 0.528,-1.44001 1.104,-2.856 1.728,-4.248 0.24,-0.768 0.6,-1.656 1.08,-2.664 0.528,-0.96 0.792,-1.824 0.792,-2.592 0,-0.24 -0.072,-0.456 -0.216,-0.648 -0.144,-0.24 -0.384,-0.408 -0.72,-0.504 -0.048,-0.048 -0.216,-0.096 -0.504,-0.144 -0.24,-0.048 -0.528,-0.096 -0.864,-0.144 -0.288,-0.048 -0.576,-0.096 -0.864,-0.144 -0.24,-0.048 -0.384,-0.072 -0.432,-0.072 -0.192,-0.096 -0.504,-0.216 -0.936,-0.36 -0.432,-0.14399 -0.696,-0.26399 -0.792,-0.36 -0.048,1e-5 -0.192,-0.072 -0.432,-0.216 -0.24,-0.14399 -0.504,-0.31199 -0.79199,-0.504 -0.28801,-0.19199 -0.57601,-0.35999 -0.86401,-0.504 -0.288,-0.19199 -0.504,-0.33599 -0.64799,-0.432 -0.768,-0.67199 -1.104,-1.53599 -1.00801,-2.592 -0.048,-1.19999 0.33601,-2.27999 1.152,-3.24 0.864,-1.00799 1.896,-1.96799 3.096,-2.88 0.096,-0.048 0.168,-0.096 0.216,-0.144 l 0.216,-0.216 c 0.144,-0.048 0.336,-0.14398 0.576,-0.288 0.288,-0.19198 0.576,-0.35998 0.864,-0.504 0.288,-0.19198 0.528,-0.33598 0.72,-0.432 0.24,-0.14398 0.408,-0.23998 0.504,-0.288 0.384,-0.23998 0.72,-0.40798 1.008,-0.504 0.288,-0.096 0.456,-0.31198 0.504,-0.648 -0.048,-0.28798 -0.24,-0.55198 -0.576,-0.792 -0.288,-0.28798 -0.456,-0.57598 -0.504,-0.864 0,-0.23998 0.144,-0.45598 0.432,-0.648 0.288,-0.19198 0.624,-0.28798 1.008,-0.288 0.144,2e-5 0.312,2e-5 0.504,0 0.192,2e-5 0.336,0.048 0.432,0.144 l 3.312,2.088 c 0.67199,0.096 1.27199,0.19202 1.80001,0.288 0.57598,0.096 1.05598,0.31202 1.43999,0.648 l -0.072,0.072 0,0.144 c -0.24001,0.19202 -0.55201,0.26402 -0.936,0.216 -0.33601,-0.048 -0.67201,-0.072 -1.008,-0.072 0.048,0.62402 0.11999,1.10402 0.216,1.44 0.14399,0.33602 0.33599,0.81602 0.576,1.44 0.048,0.096 0.096,0.28801 0.144,0.576 0.096,0.28801 0.14399,0.48001 0.144,0.576 l 0.288,1.44 c -0.048,0.72001 -0.096,1.44001 -0.144,2.16 -0.048,0.67201 -0.12001,1.34401 -0.216,2.016 -0.14401,0.81601 -0.45601,1.60801 -0.936,2.376 -0.48001,0.768 -0.93601,1.56 -1.368,2.376 -1e-5,0.048 -0.048,0.192 -0.144,0.432 -0.096,0.24 -0.21601,0.504 -0.36,0.792 -0.096,0.24 -0.21601,0.48 -0.36,0.72 -0.096,0.288 -0.16801,0.456 -0.216,0.504 -1.63201,2.4 -2.952,5.112 -3.96,8.136 -0.24,0.62399 -0.552,1.31999 -0.936,2.088 -0.384,0.76799 -0.552,1.48799 -0.504,2.16 0,0.048 0,0.14399 0,0.288 0.048,0.14399 0.072,0.26399 0.072,0.36 0.52799,-0.38401 0.98399,-0.84001 1.36799,-1.368 0.384,-0.48001 0.816,-0.96001 1.296,-1.44 0.432,-0.52801 0.912,-0.98401 1.44,-1.368 0.52799,-0.38401 0.98399,-0.81601 1.368,-1.296 0.048,-0.048 0.19199,-0.21601 0.432,-0.504 0.28799,-0.28801 0.57599,-0.60001 0.864,-0.936 0.28799,-0.336 0.55199,-0.648 0.79201,-0.936 0.23998,-0.24 0.40798,-0.384 0.50399,-0.432 0.14399,-0.144 0.38399,-0.408 0.72,-0.792 0.38399,-0.336 0.79199,-0.72 1.224,-1.152 0.43199,-0.432 0.83999,-0.84 1.224,-1.224 0.38399,-0.384 0.64799,-0.648 0.79201,-0.792 0.096,-0.096 0.35998,-0.36 0.79199,-0.792 0.47999,-0.384 0.79199,-0.624 0.936,-0.72 0.23998,-0.144 0.47998,-0.288 0.72,-0.432 0.23998,-0.144 0.47998,-0.216 0.72,-0.216 0.57598,0 0.93598,0.144 1.08,0.432 0.19198,0.24 0.28798,0.48 0.28801,0.72 -3e-5,0.384 -0.24003,0.576 -0.72001,0.576 -0.48002,0.048 -0.84002,0.12 -1.08,0.216 -0.33602,0.096 -0.69602,0.312 -1.08,0.648 -0.33601,0.336 -0.55201,0.552 -0.648,0.648 -2.68801,2.352 -5.08801,4.82399 -7.2,7.416 -2.06401,2.63999 -3.888,5.35199 -5.472,8.136 -0.912,1.63198 -1.728,3.28798 -2.448,4.968 -0.72,1.67998 -1.368,3.35998 -1.944,5.04 -0.096,0.048 -0.24,0.23997 -0.43199,0.576 -0.14401,0.38397 -0.24001,0.62397 -0.28801,0.72 -0.336,0.95997 -0.504,1.87197 -0.504,2.736 0,0.91197 0,1.79997 0,2.664 0,0.14397 0,0.35997 0,0.648 0.048,0.28797 0.072,0.57597 0.072,0.864 0,0.33596 0,0.64796 0,0.936 0,0.28796 0,0.50396 0,0.648 -0.048,0.33596 -0.024,0.79196 0.072,1.368 0.096,0.57596 0.096,1.15196 0,1.728 -0.096,0.57596 -0.408,1.10396 -0.936,1.584 -0.47999,0.52796 -1.34399,0.86396 -2.592,1.008 -0.76799,-4e-5 -1.19999,-0.24004 -1.296,-0.72 -0.14399,-0.43204 -0.21599,-0.88804 -0.216,-1.368 m 2.592,-0.936 c 0.19201,-4e-5 0.28801,-0.12004 0.288,-0.36 1e-5,-0.096 -0.024,-0.21604 -0.072,-0.36 1e-5,-0.048 0.024,-0.19204 0.072,-0.432 0.048,-0.24004 -0.048,-0.36004 -0.288,-0.36 l 0,1.512 m 11.664,-41.256 c -0.14401,0 -0.21601,0.072 -0.216,0.216 0.048,0.144 0.14399,0.216 0.288,0.216 0.19199,0 0.26399,-0.072 0.216,-0.216 -1e-5,-0.144 -0.096,-0.216 -0.288,-0.216 m -5.4,-6.912 c 0,0.57601 0.36,0.93601 1.08,1.08 0.72,0.14401 1.368,0.21601 1.944,0.216 0.192,1e-5 0.456,1e-5 0.792,0 0.336,-0.048 0.552,-0.072 0.648,-0.072 0.48,-0.14399 0.83999,-0.38399 1.08,-0.72 0.28799,-0.38399 0.50399,-0.79199 0.648,-1.224 0.14399,-0.43199 0.21599,-0.86399 0.216,-1.296 0.048,-0.43199 0.072,-0.79199 0.072,-1.08 -0.048,-0.52799 -0.096,-1.00799 -0.144,-1.44 -0.048,-0.47999 -0.21601,-0.91199 -0.50399,-1.296 -0.048,-0.048 -0.24002,-0.16798 -0.57601,-0.36 -0.28801,-0.23998 -0.528,-0.40798 -0.72,-0.504 l -0.21599,0 -0.36001,0 c -1.488,0.81602 -2.544,1.82401 -3.168,3.024 -0.624,1.20001 -0.888,2.42401 -0.792,3.672"
         style=""
         id="path2999" />
      <path
         d="m 234.89975,182.30857 c -0.14401,-0.23999 -0.19201,-0.40799 -0.144,-0.504 0.096,-0.096 -1e-5,-0.14399 -0.288,-0.144 l -5.472,2.88 c -0.096,0.14401 -0.528,0.16801 -1.296,0.072 -0.816,-0.14399 -1.44,-0.59999 -1.872,-1.368 -0.48,-0.76799 0.144,-1.43999 1.872,-2.016 0.864,-0.14399 1.992,-0.74399 3.384,-1.8 1.44,-1.10399 2.87999,-2.25599 4.32,-3.456 1.48799,-1.24798 2.83199,-2.37598 4.032,-3.384 1.24799,-1.00798 2.13599,-1.51198 2.664,-1.512 0.43199,2e-5 0.74398,0.19202 0.936,0.576 0.19198,0.33602 0.28798,0.76802 0.288,1.296 -2e-5,0.57602 -0.12002,1.17602 -0.36,1.8 -0.19201,0.57601 -0.28801,1.15201 -0.288,1.728 l 0,0.36 c 1.05598,1.72801 2.44798,2.59201 4.176,2.592 0.57598,1e-5 1.00798,-0.11999 1.296,-0.36 0.28798,-0.23999 0.62398,-0.57599 1.008,-1.008 0.14398,-0.14399 0.38398,-0.38399 0.72,-0.72 0.33598,-0.33599 0.67198,-0.69599 1.008,-1.08 0.38398,-0.38399 0.74398,-0.76799 1.08,-1.152 0.33598,-0.38398 0.57598,-0.64798 0.72,-0.792 l 0.36,0 c 0.28797,2e-5 0.50397,0.14402 0.648,0.432 0.14397,0.24001 0.21597,0.55201 0.216,0.936 l 0,0.504 c -0.28803,1.00801 -0.74403,2.06401 -1.368,3.168 -0.57602,1.05601 -0.86402,2.20801 -0.864,3.456 -2e-5,0.91201 0.50398,1.36801 1.512,1.368 -0.14403,1e-5 0.14397,-0.21599 0.864,-0.648 0.71997,-0.47999 1.53597,-0.86399 2.448,-1.152 0.91197,-0.28799 1.72797,-0.38399 2.448,-0.288 0.71997,0.096 1.00797,0.67201 0.864,1.728 -0.096,0.096 -0.40803,0.36001 -0.936,0.792 -0.52803,0.432 -1.08003,0.888 -1.656,1.368 -0.57603,0.48 -1.12803,0.936 -1.656,1.368 -0.52803,0.384 -0.84003,0.6 -0.936,0.648 -0.62403,0.336 -1.36803,0.792 -2.232,1.368 -0.81602,0.624 -1.58402,0.936 -2.304,0.936 -0.81602,0 -1.39202,-0.336 -1.728,-1.008 -0.33602,-0.672 -0.55202,-1.416 -0.648,-2.232 l -0.432,0 c -0.76802,0 -1.51202,0.192 -2.232,0.576 -0.67202,0.384 -1.34402,0.792 -2.016,1.224 -0.62401,0.432 -1.27201,0.84 -1.944,1.224 -0.67201,0.384 -1.36801,0.576 -2.088,0.576 -1.00801,0 -1.80001,-0.264 -2.376,-0.792 -0.52801,-0.528 -0.93601,-1.2 -1.224,-2.016 -0.24001,-0.816 -0.38401,-1.704 -0.432,-2.664 -0.048,-1.00799 -0.072,-1.96799 -0.072,-2.88"
         style=""
         id="path3001" />
      <path
         d="m 256.87437,186.26857 c -0.76799,-1.53599 -1.07999,-2.54399 -0.936,-3.024 0.14401,-0.52799 0.50401,-0.79199 1.08,-0.792 0.576,1e-5 1.2,0.096 1.872,0.288 0.72,0.19201 1.272,0.21601 1.656,0.072 0,-0.19199 -0.048,-0.57599 -0.144,-1.152 -0.096,-0.57599 -0.216,-1.19999 -0.36,-1.872 -0.096,-0.67199 -0.192,-1.29599 -0.288,-1.872 -0.096,-0.62399 -0.144,-1.05599 -0.144,-1.296 0,-1.39199 0.336,-2.59198 1.00801,-3.6 0.71999,-1.00798 1.77599,-1.63198 3.168,-1.872 l 0.50399,0 c 0.144,2e-5 0.264,2e-5 0.36,0 0.096,-0.048 0.192,-0.072 0.288,-0.072 0.576,2e-5 1.104,0.048 1.584,0.144 0.528,0.048 0.98399,0.19202 1.368,0.432 0.43199,0.24002 0.76799,0.60002 1.008,1.08 0.23999,0.43202 0.35999,1.03202 0.36,1.8 -1e-5,1.34401 -0.28801,2.49601 -0.86399,3.456 -0.57602,0.96001 -1.22401,1.92001 -1.94401,2.88 -0.24,0.33601 -0.528,0.64801 -0.864,0.936 -0.288,0.28801 -0.432,0.67201 -0.43199,1.152 -1e-5,0.33601 0.072,0.57601 0.216,0.72 0.14399,0.096 0.33599,0.16801 0.57599,0.216 0.24,1e-5 0.504,1e-5 0.79201,0 0.28799,-0.048 0.57598,-0.072 0.86399,-0.072 1.82399,-0.71999 2.97599,-0.98399 3.456,-0.792 0.47999,0.14401 0.50399,0.50401 0.072,1.08 -0.43202,0.57601 -1.22402,1.248 -2.37601,2.016 -1.15201,0.72 -2.448,1.296 -3.888,1.728 -1.392,0.384 -2.808,0.528 -4.24799,0.432 -1.44001,-0.144 -2.68801,-0.816 -3.74401,-2.016"
         style=""
         id="path3003" />
      <path
         d="m 277.79037,182.30857 c -0.144,-0.23999 -0.192,-0.40799 -0.144,-0.504 0.096,-0.096 0,-0.14399 -0.28799,-0.144 l -5.47201,2.88 c -0.096,0.14401 -0.528,0.16801 -1.296,0.072 -0.81599,-0.14399 -1.43999,-0.59999 -1.872,-1.368 -0.47999,-0.76799 0.14401,-1.43999 1.872,-2.016 0.864,-0.14399 1.992,-0.74399 3.384,-1.8 1.44,-1.10399 2.88,-2.25599 4.32,-3.456 1.488,-1.24798 2.83199,-2.37598 4.032,-3.384 1.24799,-1.00798 2.13599,-1.51198 2.664,-1.512 0.43199,2e-5 0.74399,0.19202 0.936,0.576 0.19199,0.33602 0.28799,0.76802 0.28801,1.296 -2e-5,0.57602 -0.12002,1.17602 -0.36001,1.8 -0.19201,0.57601 -0.28801,1.15201 -0.288,1.728 l 0,0.36 c 1.05599,1.72801 2.44799,2.59201 4.176,2.592 0.57599,1e-5 1.00798,-0.11999 1.296,-0.36 0.28798,-0.23999 0.62398,-0.57599 1.008,-1.008 0.14398,-0.14399 0.38398,-0.38399 0.72,-0.72 0.33598,-0.33599 0.67198,-0.69599 1.00801,-1.08 0.38397,-0.38399 0.74397,-0.76799 1.07999,-1.152 0.33598,-0.38398 0.57598,-0.64798 0.72001,-0.792 l 0.35999,0 c 0.28798,2e-5 0.50398,0.14402 0.64801,0.432 0.14397,0.24001 0.21597,0.55201 0.216,0.936 l 0,0.504 c -0.28803,1.00801 -0.74403,2.06401 -1.368,3.168 -0.57603,1.05601 -0.86403,2.20801 -0.86401,3.456 -2e-5,0.91201 0.50398,1.36801 1.512,1.368 -0.14402,1e-5 0.14398,-0.21599 0.864,-0.648 0.71998,-0.47999 1.53598,-0.86399 2.448,-1.152 0.91198,-0.28799 1.72797,-0.38399 2.448,-0.288 0.71997,0.096 1.00797,0.67201 0.86401,1.728 -0.096,0.096 -0.40804,0.36001 -0.93601,0.792 -0.52803,0.432 -1.08002,0.888 -1.656,1.368 -0.57602,0.48 -1.12802,0.936 -1.65599,1.368 -0.52803,0.384 -0.84003,0.6 -0.93601,0.648 -0.62402,0.336 -1.36802,0.792 -2.23199,1.368 -0.81603,0.624 -1.58403,0.936 -2.30401,0.936 -0.81602,0 -1.39202,-0.336 -1.728,-1.008 -0.33602,-0.672 -0.55201,-1.416 -0.64799,-2.232 l -0.43201,0 c -0.76801,0 -1.51201,0.192 -2.23199,0.576 -0.67202,0.384 -1.34402,0.792 -2.01601,1.224 -0.62401,0.432 -1.27201,0.84 -1.944,1.224 -0.67201,0.384 -1.36801,0.576 -2.08799,0.576 -1.00802,0 -1.80001,-0.264 -2.37601,-0.792 -0.528,-0.528 -0.936,-1.2 -1.224,-2.016 -0.24,-0.816 -0.384,-1.704 -0.432,-2.664 -0.048,-1.00799 -0.072,-1.96799 -0.072,-2.88"
         style=""
         id="path3005" />
      <path
         d="m 299.765,186.26857 c -0.768,-1.53599 -1.08,-2.54399 -0.936,-3.024 0.144,-0.52799 0.504,-0.79199 1.08,-0.792 0.576,1e-5 1.2,0.096 1.872,0.288 0.72,0.19201 1.272,0.21601 1.656,0.072 0,-0.19199 -0.048,-0.57599 -0.144,-1.152 -0.096,-0.57599 -0.216,-1.19999 -0.36,-1.872 -0.096,-0.67199 -0.192,-1.29599 -0.288,-1.872 -0.096,-0.62399 -0.144,-1.05599 -0.144,-1.296 0,-1.39199 0.336,-2.59198 1.008,-3.6 0.72,-1.00798 1.77599,-1.63198 3.168,-1.872 l 0.504,0 c 0.14399,2e-5 0.26399,2e-5 0.36,0 0.096,-0.048 0.19199,-0.072 0.288,-0.072 0.57599,2e-5 1.10399,0.048 1.584,0.144 0.52799,0.048 0.98399,0.19202 1.368,0.432 0.43199,0.24002 0.76799,0.60002 1.008,1.08 0.23999,0.43202 0.35999,1.03202 0.36,1.8 -10e-6,1.34401 -0.28801,2.49601 -0.864,3.456 -0.57601,0.96001 -1.22401,1.92001 -1.944,2.88 -0.24001,0.33601 -0.52801,0.64801 -0.864,0.936 -0.28801,0.28801 -0.43201,0.67201 -0.432,1.152 -1e-5,0.33601 0.072,0.57601 0.216,0.72 0.14399,0.096 0.33599,0.16801 0.576,0.216 0.23999,1e-5 0.50399,1e-5 0.792,0 0.28799,-0.048 0.57599,-0.072 0.864,-0.072 1.82399,-0.71999 2.97599,-0.98399 3.456,-0.792 0.47999,0.14401 0.50399,0.50401 0.072,1.08 -0.43201,0.57601 -1.22401,1.248 -2.376,2.016 -1.15201,0.72 -2.44801,1.296 -3.888,1.728 -1.39201,0.384 -2.808,0.528 -4.248,0.432 -1.44,-0.144 -2.688,-0.816 -3.744,-2.016"
         style=""
         id="path3007" />
    </g>
  </g>
</svg>
